<?xml version="1.0" encoding="UTF-8" standalone="no"?>
<!-- Created with Inkscape (http://www.inkscape.org/) -->

<svg
   width="32"
   height="32"
   viewBox="0 0 32 32"
   version="1.1"
   id="svg1"
   inkscape:version="1.4 (e7c3feb100, 2024-10-09)"
   sodipodi:docname="trash-delete.svg"
   xmlns:inkscape="http://www.inkscape.org/namespaces/inkscape"
   xmlns:sodipodi="http://sodipodi.sourceforge.net/DTD/sodipodi-0.dtd"
   xmlns="http://www.w3.org/2000/svg"
   xmlns:svg="http://www.w3.org/2000/svg">
  <sodipodi:namedview
     id="namedview1"
     pagecolor="#505050"
     bordercolor="#ffffff"
     borderopacity="1"
     inkscape:showpageshadow="0"
     inkscape:pageopacity="0"
     inkscape:pagecheckerboard="1"
     inkscape:deskcolor="#505050"
     inkscape:document-units="px"
     inkscape:zoom="12.484375"
     inkscape:cx="10.212766"
     inkscape:cy="-2.2828536"
     inkscape:window-width="1920"
     inkscape:window-height="1008"
     inkscape:window-x="0"
     inkscape:window-y="0"
     inkscape:window-maximized="1"
     inkscape:current-layer="layer1" />
  <defs
     id="defs1" />
  <g
     inkscape:label="Layer 1"
     inkscape:groupmode="layer"
     id="layer1">
    <g
       id="rect1">
      <path
         style="display:inline;fill:#f90303;stroke-linecap:round;stroke-linejoin:bevel;paint-order:stroke markers fill;fill-opacity:1"
         d="M 27.837891,5.984375 4.1445312,6.0136719 C 3.5386452,6.014396 2.9954878,6.2392432 2.5703125,6.640625 2.1451372,7.0420068 1.8355094,7.707621 1.9492187,8.4082031 L 5.3339844,29.259766 c 0.078048,0.480863 0.2707941,0.955682 0.6386718,1.349609 0.3678778,0.393927 0.9498528,0.677734 1.5566407,0.677734 H 24.470703 c 0.606734,0 1.188573,-0.283765 1.556641,-0.677734 0.368067,-0.393969 0.560943,-0.868045 0.638672,-1.349609 L 30.037109,8.3808594 C 30.150173,7.6803797 29.842602,7.0156388 29.417969,6.6132812 28.993335,6.2109237 28.446797,5.9836472 27.837891,5.984375 Z M 27.724609,8.2851563 24.396484,28.892578 c -0.01028,0.06367 -0.02165,0.07142 -0.0332,0.09375 H 7.6367187 c -0.011662,-0.02253 -0.022804,-0.02968 -0.033203,-0.09375 L 4.2636719,8.3144531 Z M 15.992188,8.734375 c -1.053503,0 -1.9375,0.883996 -1.9375,1.9375 v 15.927734 c 0,1.053503 0.883996,1.9375 1.9375,1.9375 1.053504,0 1.9375,-0.883996 1.937499,-1.9375 V 10.671875 c 0,-1.053504 -0.883996,-1.9375 -1.937499,-1.9375 z M 8.3671875,8.9335938 C 8.2294971,8.9276121 8.1000672,8.9354738 7.9765625,8.9550781 6.9368307,9.1201204 6.200003,10.130957 6.3652344,11.171875 l 2.4980469,15.730469 c 0.1650444,1.03973 1.1758767,1.776561 2.2167967,1.611328 1.039733,-0.165043 1.776553,-1.175886 1.611328,-2.216797 L 10.193359,10.566406 C 10.049193,9.6581969 9.2714707,8.9728881 8.3671875,8.9335938 Z M 23.619141,9.171875 c -0.90003,0.03911 -1.683254,0.7182155 -1.828125,1.630859 l -2.496094,15.730469 c -0.165233,1.040918 0.571596,2.051755 1.611328,2.216797 1.037568,0.164701 2.05167,-0.569111 2.216797,-1.609375 L 25.619141,11.410156 C 25.784371,10.369239 25.047543,9.3584039 24.007812,9.1933594 23.888564,9.1744307 23.755591,9.1659473 23.619141,9.171875 Z"
         id="path7" />
      <path
         style="stroke-linecap:round;stroke-linejoin:bevel;paint-order:stroke markers fill"
         d="M 27.839844,7.1347656 4.1464844,7.1640625 C 3.5581438,7.1647657 2.989726,7.6438679 3.0839844,8.2246094 L 6.46875,29.076172 c 0.094258,0.580741 0.4722058,1.060547 1.0605469,1.060547 H 24.470703 c 0.588341,0 0.966797,-0.479723 1.060547,-1.060547 L 28.902344,8.1972656 c 0.09375,-0.5808238 -0.47416,-1.0632032 -1.0625,-1.0625 z m -11.847656,2.75 c 0.435949,0 0.787109,0.3511594 0.787109,0.7871094 v 15.927734 c 0,0.43595 -0.35116,0.78711 -0.787109,0.78711 -0.435951,0 -0.78711,-0.35116 -0.78711,-0.78711 V 10.671875 c 0,-0.43595 0.35116,-0.7871094 0.78711,-0.7871094 z M 8.3164062,10.082031 c 0.3662528,0.01591 0.6804321,0.287324 0.7402344,0.664063 l 2.4980474,15.730468 c 0.06834,0.43056 -0.223738,0.832046 -0.654297,0.900391 C 10.469832,27.445299 10.068346,27.153215 10,26.722656 L 7.5019531,10.992188 c -0.068345,-0.43056 0.2237378,-0.832046 0.6542969,-0.900391 0.05382,-0.0085 0.1078345,-0.01204 0.1601562,-0.0098 z m 15.3535158,0.238281 c 0.05232,-0.0023 0.104383,0.0012 0.158203,0.0098 0.430559,0.06835 0.722642,0.469832 0.654297,0.900391 l -2.496094,15.730469 c -0.06835,0.430559 -0.469831,0.720689 -0.90039,0.652343 -0.43056,-0.06835 -0.722643,-0.469831 -0.654297,-0.90039 l 2.496093,-15.730469 c 0.0598,-0.376739 0.375935,-0.646195 0.742188,-0.66211 z"
         id="path8" />
    </g>
    <g
       id="path4">
      <path
         style="fill:#f90303;stroke-linecap:round;stroke-linejoin:bevel;paint-order:stroke markers fill;fill-opacity:1"
         d="m 12.369141,0.13671875 c -1.607064,0 -2.8781769,1.29430335 -2.978516,2.87890625 H 3.8457031 c -1.159739,0 -2.1328125,0.968366 -2.1328125,2.1308594 0,1.1624934 0.9730737,2.1308594 2.1328125,2.1308593 H 28.154297 c 1.159739,10e-8 2.132812,-0.9683649 2.132812,-2.1308593 0,-1.1624944 -0.973073,-2.1308594 -2.132812,-2.1308594 H 22.609375 C 22.509036,1.4310221 21.237923,0.13671875 19.630859,0.13671875 Z m -1.06836,4.35156245 0.488282,0.4882813 H 10.8125 Z m 9.398438,0 0.488281,0.4882813 h -0.976563 z"
         id="path5" />
      <path
         style="stroke-linecap:round;stroke-linejoin:bevel;paint-order:stroke markers fill"
         d="m 12.369141,1.2871094 c -1.035627,0 -1.896485,0.8589042 -1.896485,1.8945312 v 0.984375 H 3.8457031 c -0.5435995,0 -0.9824218,0.4368693 -0.9824218,0.9804688 0,0.5435995 0.4388223,0.9804687 0.9824218,0.9804687 H 28.154297 c 0.543599,0 0.982422,-0.4368692 0.982422,-0.9804687 0,-0.5435995 -0.438823,-0.9804688 -0.982422,-0.9804688 h -6.626953 v -0.984375 c 0,-1.035627 -0.860858,-1.8945312 -1.896485,-1.8945312 z m 0,1.65625 h 7.261718 c 0.146848,0 0.240235,0.091434 0.240235,0.2382812 v 0.984375 h -7.742188 v -0.984375 c 0,-0.1468471 0.09339,-0.2382812 0.240235,-0.2382812 z"
         id="path6" />
    </g>
  </g>
</svg>
