<?xml version="1.0" encoding="UTF-8" standalone="no"?>
<!-- Created with Inkscape (http://www.inkscape.org/) -->

<svg
   width="32"
   height="32"
   viewBox="0 0 32 32"
   version="1.1"
   id="svg1"
   inkscape:version="1.4 (e7c3feb100, 2024-10-09)"
   sodipodi:docname="trash.svg"
   xmlns:inkscape="http://www.inkscape.org/namespaces/inkscape"
   xmlns:sodipodi="http://sodipodi.sourceforge.net/DTD/sodipodi-0.dtd"
   xmlns="http://www.w3.org/2000/svg"
   xmlns:svg="http://www.w3.org/2000/svg">
  <sodipodi:namedview
     id="namedview1"
     pagecolor="#505050"
     bordercolor="#ffffff"
     borderopacity="1"
     inkscape:showpageshadow="0"
     inkscape:pageopacity="0"
     inkscape:pagecheckerboard="1"
     inkscape:deskcolor="#505050"
     inkscape:document-units="px"
     inkscape:zoom="12.484375"
     inkscape:cx="10.533166"
     inkscape:cy="13.416771"
     inkscape:window-width="1920"
     inkscape:window-height="1008"
     inkscape:window-x="0"
     inkscape:window-y="0"
     inkscape:window-maximized="1"
     inkscape:current-layer="layer1" />
  <defs
     id="defs1" />
  <g
     inkscape:label="Layer 1"
     inkscape:groupmode="layer"
     id="layer1">
    <path
       id="rect1"
       style="stroke-width:0.7"
       d="M 27.839844 7.1347656 L 4.1464844 7.1640625 C 3.5581438 7.1647657 2.989726 7.6438679 3.0839844 8.2246094 L 6.46875 29.076172 C 6.5630084 29.656913 6.9409558 30.136719 7.5292969 30.136719 L 24.470703 30.136719 C 25.059044 30.136719 25.4375 29.656996 25.53125 29.076172 L 28.902344 8.1972656 C 28.996094 7.6164418 28.428184 7.1340624 27.839844 7.1347656 z M 15.992188 9.8847656 C 16.428137 9.8847656 16.779297 10.235925 16.779297 10.671875 L 16.779297 26.599609 C 16.779297 27.035559 16.428137 27.386719 15.992188 27.386719 C 15.556237 27.386719 15.205078 27.035559 15.205078 26.599609 L 15.205078 10.671875 C 15.205078 10.235925 15.556238 9.8847656 15.992188 9.8847656 z M 8.3164062 10.082031 C 8.682659 10.097946 8.9968383 10.369355 9.0566406 10.746094 L 11.554688 26.476562 C 11.623031 26.907122 11.33095 27.308608 10.900391 27.376953 C 10.469832 27.445299 10.068346 27.153215 10 26.722656 L 7.5019531 10.992188 C 7.4336076 10.561628 7.7256909 10.160142 8.15625 10.091797 C 8.2100699 10.083254 8.2640845 10.079758 8.3164062 10.082031 z M 23.669922 10.320312 C 23.722244 10.318039 23.774305 10.321535 23.828125 10.330078 C 24.258684 10.398424 24.550767 10.79991 24.482422 11.230469 L 21.986328 26.960938 C 21.917983 27.391497 21.516497 27.681627 21.085938 27.613281 C 20.655378 27.544936 20.363295 27.14345 20.431641 26.712891 L 22.927734 10.982422 C 22.987537 10.605683 23.303669 10.336227 23.669922 10.320312 z " />
    <path
       d="m 12.369141,1.2871094 c -1.035627,0 -1.896485,0.8589042 -1.896485,1.8945312 v 0.984375 H 3.8457031 c -0.5435995,0 -0.9824218,0.4368693 -0.9824218,0.9804688 0,0.5435995 0.4388223,0.9804687 0.9824218,0.9804687 H 28.154297 c 0.543599,0 0.982422,-0.4368692 0.982422,-0.9804687 0,-0.5435995 -0.438823,-0.9804688 -0.982422,-0.9804688 h -6.626953 v -0.984375 c 0,-1.035627 -0.860858,-1.8945312 -1.896485,-1.8945312 z m 0,1.65625 h 7.261718 c 0.146848,0 0.240235,0.091434 0.240235,0.2382812 v 0.984375 h -7.742188 v -0.984375 c 0,-0.1468471 0.09339,-0.2382812 0.240235,-0.2382812 z"
       style=""
       id="path4" />
  </g>
</svg>
